<svg xmlns="http://www.w3.org/2000/svg" width="1052" height="1023" viewBox="0 0 1052 1023" font-family="Helvetica, Arial, sans-serif">
<title>Floor plan of c7d28f72c6. The arrow is the plan +y axis; true north is unknown.</title>
<rect width="1052" height="1023" fill="#ffffff"/>
<text x="24.0" y="22.0" font-size="17" text-anchor="start" dy="0.35em" fill="#262a2e" font-weight="bold">Floor plan · c7d28f72c6</text>
<text x="24.0" y="42.0" font-size="12" text-anchor="start" dy="0.35em" fill="#5f6670">Video · footprint 13.20 m² ±13.28 · ± = 90% interval · +y is the plan axis, not north</text>
<g id="floors">
<polygon points="589.7,414.8 774.4,414.8 774.4,520.0 821.3,520.0 821.3,571.0 897.3,571.0 897.3,414.8 956.6,414.8 956.6,247.8 732.6,247.8 732.6,153.0 662.8,153.0 662.8,209.1 589.7,209.1" fill="#eef1f4" stroke="none" data-room="R1"/>
<polygon points="95.0,828.0 246.5,828.0 246.5,520.0 138.2,520.0 138.2,571.0 95.0,571.0" fill="#eef1f4" stroke="none" data-room="R2"/>
</g>
<g id="walls">
<polygon points="589.7,414.8 713.4,414.8 713.4,422.8 581.7,422.8" fill="#262a2e" stroke="#262a2e" stroke-width="0.6" stroke-linejoin="miter" data-wall="R1.W1"/>
<polygon points="774.4,414.8 774.4,520.0 766.4,528.0 766.4,422.8" fill="#262a2e" stroke="#262a2e" stroke-width="0.6" stroke-linejoin="miter" data-wall="R1.W2"/>
<polygon points="774.4,520.0 821.3,520.0 813.3,528.0 766.4,528.0" fill="#262a2e" stroke="#262a2e" stroke-width="0.6" stroke-linejoin="miter" data-wall="R1.W3"/>
<polygon points="821.3,520.0 821.3,571.0 813.3,579.0 813.3,528.0" fill="#262a2e" stroke="#262a2e" stroke-width="0.6" stroke-linejoin="miter" data-wall="R1.W4"/>
<polygon points="821.3,571.0 897.3,571.0 905.3,579.0 813.3,579.0" fill="#262a2e" stroke="#262a2e" stroke-width="0.6" stroke-linejoin="miter" data-wall="R1.W5"/>
<polygon points="897.3,571.0 897.3,414.8 905.3,422.8 905.3,579.0" fill="#262a2e" stroke="#262a2e" stroke-width="0.6" stroke-linejoin="miter" data-wall="R1.W6"/>
<polygon points="897.3,414.8 956.6,414.8 964.6,422.8 905.3,422.8" fill="#262a2e" stroke="#262a2e" stroke-width="0.6" stroke-linejoin="miter" data-wall="R1.W7"/>
<polygon points="956.6,414.8 956.6,247.8 964.6,239.8 964.6,422.8" fill="#262a2e" stroke="#262a2e" stroke-width="0.6" stroke-linejoin="miter" data-wall="R1.W8"/>
<polygon points="956.6,247.8 732.6,247.8 740.6,239.8 964.6,239.8" fill="#262a2e" stroke="#262a2e" stroke-width="0.6" stroke-linejoin="miter" data-wall="R1.W9"/>
<polygon points="732.6,247.8 732.6,153.0 740.6,145.0 740.6,239.8" fill="#262a2e" stroke="#262a2e" stroke-width="0.6" stroke-linejoin="miter" data-wall="R1.W10"/>
<polygon points="732.6,153.0 662.8,153.0 654.8,145.0 740.6,145.0" fill="#262a2e" stroke="#262a2e" stroke-width="0.6" stroke-linejoin="miter" data-wall="R1.W11"/>
<polygon points="662.8,153.0 662.8,209.1 654.8,201.1 654.8,145.0" fill="#262a2e" stroke="#262a2e" stroke-width="0.6" stroke-linejoin="miter" data-wall="R1.W12"/>
<polygon points="662.8,209.1 589.7,209.1 581.7,201.1 654.8,201.1" fill="#262a2e" stroke="#262a2e" stroke-width="0.6" stroke-linejoin="miter" data-wall="R1.W13"/>
<polygon points="589.7,209.1 589.7,414.8 581.7,422.8 581.7,201.1" fill="#262a2e" stroke="#262a2e" stroke-width="0.6" stroke-linejoin="miter" data-wall="R1.W14"/>
<polygon points="95.0,828.0 246.5,828.0 254.5,836.0 87.0,836.0" fill="#262a2e" stroke="#262a2e" stroke-width="0.6" stroke-linejoin="miter" data-wall="R2.W1"/>
<polygon points="246.5,828.0 246.5,520.0 254.5,512.0 254.5,836.0" fill="#262a2e" stroke="#262a2e" stroke-width="0.6" stroke-linejoin="miter" data-wall="R2.W2"/>
<polygon points="246.5,520.0 138.2,520.0 130.2,512.0 254.5,512.0" fill="#262a2e" stroke="#262a2e" stroke-width="0.6" stroke-linejoin="miter" data-wall="R2.W3"/>
<polygon points="138.2,520.0 138.2,571.0 130.2,563.0 130.2,512.0" fill="#262a2e" stroke="#262a2e" stroke-width="0.6" stroke-linejoin="miter" data-wall="R2.W4"/>
<polygon points="138.2,571.0 95.0,571.0 87.0,563.0 130.2,563.0" fill="#262a2e" stroke="#262a2e" stroke-width="0.6" stroke-linejoin="miter" data-wall="R2.W5"/>
<polygon points="95.0,571.0 95.0,677.6 87.0,677.6 87.0,563.0" fill="#262a2e" stroke="#262a2e" stroke-width="0.6" stroke-linejoin="miter" data-wall="R2.W6"/>
</g>
<g id="openings">
<line x1="713.4" y1="414.8" x2="713.4" y2="422.8" stroke="#262a2e" stroke-width="1.4"/>
<line x1="774.4" y1="414.8" x2="774.4" y2="422.8" stroke="#262a2e" stroke-width="1.4"/>
<line x1="713.4" y1="414.8" x2="713.4" y2="324.5" stroke="#262a2e" stroke-width="2" stroke-linecap="round" class="door-leaf" data-opening="R1.O1"/>
<path d="M 713.4 324.5 A 90.3 90.3 0 0 1 774.4 414.8" fill="none" stroke="#262a2e" stroke-width="1" class="door-arc" data-opening="R1.O1"/>
<polygon points="95.0,677.6 95.0,828.0 87.0,828.0 87.0,677.6" fill="#dcecf7" stroke="none"/>
<line x1="95.0" y1="677.6" x2="95.0" y2="828.0" stroke="#262a2e" stroke-width="1.4" class="window" data-opening="R2.O1"/>
<line x1="87.0" y1="677.6" x2="87.0" y2="828.0" stroke="#262a2e" stroke-width="1.4" class="window" data-opening="R2.O1"/>
<line x1="95.0" y1="677.6" x2="87.0" y2="677.6" stroke="#262a2e" stroke-width="1.4"/>
<line x1="95.0" y1="828.0" x2="87.0" y2="828.0" stroke="#262a2e" stroke-width="1.4"/>
</g>
<g id="dimensions"><line x1="276.5" y1="828.0" x2="276.5" y2="720.7" stroke="#5f6670" stroke-width="0.8"/><line x1="276.5" y1="627.2" x2="276.5" y2="520.0" stroke="#5f6670" stroke-width="0.8"/><line x1="266.5" y1="828.0" x2="286.5" y2="828.0" stroke="#5f6670" stroke-width="0.8"/><line x1="266.5" y1="520.0" x2="286.5" y2="520.0" stroke="#5f6670" stroke-width="0.8"/><line x1="65.0" y1="571.0" x2="65.0" y2="588.5" stroke="#5f6670" stroke-width="0.8"/><line x1="65.0" y1="682.0" x2="65.0" y2="828.0" stroke="#5f6670" stroke-width="0.8"/><line x1="75.0" y1="571.0" x2="55.0" y2="571.0" stroke="#5f6670" stroke-width="0.8"/><line x1="75.0" y1="828.0" x2="55.0" y2="828.0" stroke="#5f6670" stroke-width="0.8"/><line x1="559.7" y1="209.1" x2="559.7" y2="265.2" stroke="#5f6670" stroke-width="0.8"/><line x1="559.7" y1="358.7" x2="559.7" y2="414.8" stroke="#5f6670" stroke-width="0.8"/><line x1="569.7" y1="209.1" x2="549.7" y2="209.1" stroke="#5f6670" stroke-width="0.8"/><line x1="569.7" y1="414.8" x2="549.7" y2="414.8" stroke="#5f6670" stroke-width="0.8"/><line x1="986.6" y1="414.8" x2="986.6" y2="378.1" stroke="#5f6670" stroke-width="0.8"/><line x1="986.6" y1="284.5" x2="986.6" y2="247.8" stroke="#5f6670" stroke-width="0.8"/><line x1="976.6" y1="414.8" x2="996.6" y2="414.8" stroke="#5f6670" stroke-width="0.8"/><line x1="976.6" y1="247.8" x2="996.6" y2="247.8" stroke="#5f6670" stroke-width="0.8"/><line x1="95.0" y1="858.0" x2="124.0" y2="858.0" stroke="#5f6670" stroke-width="0.8"/><line x1="217.5" y1="858.0" x2="246.5" y2="858.0" stroke="#5f6670" stroke-width="0.8"/><line x1="95.0" y1="848.0" x2="95.0" y2="868.0" stroke="#5f6670" stroke-width="0.8"/><line x1="246.5" y1="848.0" x2="246.5" y2="868.0" stroke="#5f6670" stroke-width="0.8"/><line x1="246.5" y1="490.0" x2="239.1" y2="490.0" stroke="#5f6670" stroke-width="0.8"/><line x1="145.6" y1="490.0" x2="138.2" y2="490.0" stroke="#5f6670" stroke-width="0.8"/><line x1="246.5" y1="500.0" x2="246.5" y2="480.0" stroke="#5f6670" stroke-width="0.8"/><line x1="138.2" y1="500.0" x2="138.2" y2="480.0" stroke="#5f6670" stroke-width="0.8"/><line x1="821.3" y1="591.0" x2="821.3" y2="611.0" stroke="#5f6670" stroke-width="0.8"/><line x1="897.3" y1="591.0" x2="897.3" y2="611.0" stroke="#5f6670" stroke-width="0.8"/><line x1="732.6" y1="133.0" x2="732.6" y2="113.0" stroke="#5f6670" stroke-width="0.8"/><line x1="662.8" y1="133.0" x2="662.8" y2="113.0" stroke="#5f6670" stroke-width="0.8"/></g>
<g id="labels"><text x="835.6" y="325.8" font-size="14" text-anchor="middle" dy="0.35em" fill="#262a2e" font-weight="bold" stroke="#ffffff" stroke-width="3" stroke-linejoin="round" paint-order="stroke" class="room-label">R1</text><text x="835.6" y="342.8" font-size="13" text-anchor="middle" dy="0.35em" fill="#262a2e" stroke="#ffffff" stroke-width="3" stroke-linejoin="round" paint-order="stroke" class="room-label">8.75 m² ±8.73</text><text x="835.6" y="359.8" font-size="12" text-anchor="middle" dy="0.35em" fill="#5f6670" stroke="#ffffff" stroke-width="3" stroke-linejoin="round" paint-order="stroke" class="room-label">h not observed</text><text x="170.7" y="682.5" font-size="14" text-anchor="middle" dy="0.35em" fill="#262a2e" font-weight="bold" stroke="#ffffff" stroke-width="3" stroke-linejoin="round" paint-order="stroke" class="room-label">connector</text><text x="170.7" y="699.5" font-size="13" text-anchor="middle" dy="0.35em" fill="#262a2e" stroke="#ffffff" stroke-width="3" stroke-linejoin="round" paint-order="stroke" class="room-label">4.45 m² ±4.55</text><text x="170.7" y="716.5" font-size="12" text-anchor="middle" dy="0.35em" fill="#5f6670" stroke="#ffffff" stroke-width="3" stroke-linejoin="round" paint-order="stroke" class="room-label">h not observed</text><text x="758.6" y="302.5" font-size="11" text-anchor="middle" dy="0.35em" fill="#1d4f91" stroke="#ffffff" stroke-width="3" stroke-linejoin="round" paint-order="stroke" class="opening-label">door 0.90 m ±0.34</text><text x="65.0" y="769.4" font-size="11" text-anchor="middle" dy="0.35em" fill="#1d4f91" stroke="#ffffff" stroke-width="3" stroke-linejoin="round" paint-order="stroke" transform="rotate(-90 65.0 769.4)" class="opening-label">window 1.84 m ±0.43</text><text x="276.5" y="674.0" font-size="12" text-anchor="middle" dy="0.35em" fill="#262a2e" stroke="#ffffff" stroke-width="3" stroke-linejoin="round" paint-order="stroke" transform="rotate(-90 276.5 674.0)" class="wall-label">3.08 m ±8.07</text><text x="65.0" y="635.2" font-size="12" text-anchor="middle" dy="0.35em" fill="#262a2e" stroke="#ffffff" stroke-width="3" stroke-linejoin="round" paint-order="stroke" transform="rotate(-90 65.0 635.2)" class="wall-label">2.57 m ±6.73</text><text x="559.7" y="312.0" font-size="12" text-anchor="middle" dy="0.35em" fill="#262a2e" stroke="#ffffff" stroke-width="3" stroke-linejoin="round" paint-order="stroke" transform="rotate(-90 559.7 312.0)" class="wall-label">2.06 m ±5.41</text><text x="986.6" y="331.3" font-size="12" text-anchor="middle" dy="0.35em" fill="#262a2e" stroke="#ffffff" stroke-width="3" stroke-linejoin="round" paint-order="stroke" transform="rotate(-90 986.6 331.3)" class="wall-label">1.67 m ±4.48</text><text x="170.7" y="858.0" font-size="12" text-anchor="middle" dy="0.35em" fill="#262a2e" stroke="#ffffff" stroke-width="3" stroke-linejoin="round" paint-order="stroke" class="wall-label">1.51 m ±4.03</text><text x="192.4" y="490.0" font-size="12" text-anchor="middle" dy="0.35em" fill="#262a2e" stroke="#ffffff" stroke-width="3" stroke-linejoin="round" paint-order="stroke" class="wall-label">1.08 m ±2.95</text><text x="859.3" y="601.0" font-size="12" text-anchor="middle" dy="0.35em" fill="#262a2e" stroke="#ffffff" stroke-width="3" stroke-linejoin="round" paint-order="stroke" class="wall-label">0.76 m ±2.12</text><text x="697.7" y="123.0" font-size="12" text-anchor="middle" dy="0.35em" fill="#262a2e" stroke="#ffffff" stroke-width="3" stroke-linejoin="round" paint-order="stroke" class="wall-label">0.70 m ±2.02</text><text x="844.6" y="269.8" font-size="12" text-anchor="middle" dy="0.35em" fill="#262a2e" stroke="#ffffff" stroke-width="3" stroke-linejoin="round" paint-order="stroke" class="wall-label">2.24 m ±5.89</text><text x="659.9" y="392.8" font-size="12" text-anchor="middle" dy="0.35em" fill="#262a2e" stroke="#ffffff" stroke-width="3" stroke-linejoin="round" paint-order="stroke" class="wall-label">1.85 m ±4.89</text><text x="875.3" y="492.9" font-size="12" text-anchor="middle" dy="0.35em" fill="#262a2e" stroke="#ffffff" stroke-width="3" stroke-linejoin="round" paint-order="stroke" transform="rotate(-90 875.3 492.9)" class="wall-label">1.56 m ±4.17</text><text x="796.4" y="467.4" font-size="12" text-anchor="middle" dy="0.35em" fill="#262a2e" stroke="#ffffff" stroke-width="3" stroke-linejoin="round" paint-order="stroke" transform="rotate(-90 796.4 467.4)" class="wall-label">1.05 m ±2.94</text><text x="710.6" y="200.4" font-size="12" text-anchor="middle" dy="0.35em" fill="#262a2e" stroke="#ffffff" stroke-width="3" stroke-linejoin="round" paint-order="stroke" transform="rotate(-90 710.6 200.4)" class="wall-label">0.95 m ±2.63</text><text x="635.0" y="231.1" font-size="12" text-anchor="middle" dy="0.35em" fill="#262a2e" stroke="#ffffff" stroke-width="3" stroke-linejoin="round" paint-order="stroke" class="wall-label">0.73 m ±2.10</text><text x="912.1" y="392.8" font-size="12" text-anchor="middle" dy="0.35em" fill="#262a2e" stroke="#ffffff" stroke-width="3" stroke-linejoin="round" paint-order="stroke" class="wall-label">0.59 m ±1.73</text><text x="684.8" y="181.0" font-size="12" text-anchor="middle" dy="0.35em" fill="#262a2e" stroke="#ffffff" stroke-width="3" stroke-linejoin="round" paint-order="stroke" transform="rotate(-90 684.8 181.0)" class="wall-label">0.56 m ±1.61</text><text x="843.3" y="545.5" font-size="12" text-anchor="middle" dy="0.35em" fill="#262a2e" stroke="#ffffff" stroke-width="3" stroke-linejoin="round" paint-order="stroke" transform="rotate(-90 843.3 545.5)" class="wall-label">0.51 m ±1.56</text><text x="160.2" y="545.5" font-size="12" text-anchor="middle" dy="0.35em" fill="#262a2e" stroke="#ffffff" stroke-width="3" stroke-linejoin="round" paint-order="stroke" transform="rotate(-90 160.2 545.5)" class="wall-label">0.51 m ±1.56</text><text x="797.9" y="498.0" font-size="12" text-anchor="middle" dy="0.35em" fill="#262a2e" stroke="#ffffff" stroke-width="3" stroke-linejoin="round" paint-order="stroke" class="wall-label">0.47 m ±1.37</text><text x="116.6" y="593.0" font-size="12" text-anchor="middle" dy="0.35em" fill="#262a2e" stroke="#ffffff" stroke-width="3" stroke-linejoin="round" paint-order="stroke" class="wall-label">0.43 m ±1.26</text></g>
<g id="damage"></g>
<g id="scale-bar"><title>Scale: each segment is 1 m at plan scale</title>
<rect x="24.0" y="941.0" width="100.0" height="6" fill="#262a2e" stroke="#262a2e" stroke-width="1"/>
<rect x="124.0" y="941.0" width="100.0" height="6" fill="#ffffff" stroke="#262a2e" stroke-width="1"/>
<text x="24.0" y="959.0" font-size="11" text-anchor="middle" dy="0.35em" fill="#262a2e">0</text>
<text x="124.0" y="959.0" font-size="11" text-anchor="middle" dy="0.35em" fill="#262a2e">1 m</text>
<text x="224.0" y="959.0" font-size="11" text-anchor="middle" dy="0.35em" fill="#262a2e">2 m</text>
</g>
<g id="axis"><title>Plan +y axis. True north is unknown: the capture has no compass.</title><line x1="1011.6" y1="965.0" x2="1011.6" y2="939.0" stroke="#262a2e" stroke-width="2"/><polygon points="1011.6,931.0 1006.6,941.0 1016.6,941.0" fill="#262a2e"/><text x="1001.6" y="953.0" font-size="11" text-anchor="end" dy="0.35em" fill="#262a2e">+y (plan)</text></g>
<g id="legend">
<line x1="24" y1="993.0" x2="58" y2="993.0" stroke="#262a2e" stroke-width="8"/>
<text x="66.0" y="993.0" font-size="11" text-anchor="start" dy="0.35em" fill="#262a2e">observed wall</text>
<line x1="164" y1="993.0" x2="198" y2="993.0" stroke="#e1e4e8" stroke-width="8"/>
<line x1="164" y1="993.0" x2="198" y2="993.0" stroke="#8a9097" stroke-width="8" stroke-dasharray="10,6"/>
<text x="206.0" y="993.0" font-size="11" text-anchor="start" dy="0.35em" fill="#262a2e">inferred (not seen)</text>
<text x="324.0" y="993.0" font-size="11" text-anchor="start" dy="0.35em" fill="#262a2e">± = 90% interval half-width</text>
<circle cx="509" cy="993.0" r="7" fill="#d32f2f"/>
<text x="522.0" y="993.0" font-size="11" text-anchor="start" dy="0.35em" fill="#262a2e">damage</text>
</g>
</svg>
